<mxfile host="app.diagrams.net" agent="Mozilla/5.0 (Windows NT 10.0; Win64; x64; rv:133.0) Gecko/20100101 Firefox/133.0" version="25.0.3">
  <diagram name="Page-1" id="IRXrGAzZk-fSAHAxPG_1">
    <mxGraphModel dx="2739" dy="996" grid="1" gridSize="10" guides="1" tooltips="1" connect="1" arrows="1" fold="1" page="1" pageScale="1" pageWidth="827" pageHeight="1169" math="0" shadow="0">
      <root>
        <mxCell id="0" />
        <mxCell id="1" parent="0" />
        <mxCell id="evuOkTjY95VLcF-Q0Ab5-5" value="" style="edgeStyle=orthogonalEdgeStyle;rounded=0;orthogonalLoop=1;jettySize=auto;html=1;" edge="1" parent="1" source="evuOkTjY95VLcF-Q0Ab5-1" target="evuOkTjY95VLcF-Q0Ab5-4">
          <mxGeometry relative="1" as="geometry" />
        </mxCell>
        <mxCell id="evuOkTjY95VLcF-Q0Ab5-1" value="&lt;div&gt;Démarrage programme&lt;/div&gt;" style="rounded=0;whiteSpace=wrap;html=1;" vertex="1" parent="1">
          <mxGeometry x="335" y="50" width="120" height="60" as="geometry" />
        </mxCell>
        <mxCell id="evuOkTjY95VLcF-Q0Ab5-8" style="edgeStyle=orthogonalEdgeStyle;rounded=0;orthogonalLoop=1;jettySize=auto;html=1;" edge="1" parent="1" source="evuOkTjY95VLcF-Q0Ab5-4" target="evuOkTjY95VLcF-Q0Ab5-6">
          <mxGeometry relative="1" as="geometry" />
        </mxCell>
        <mxCell id="evuOkTjY95VLcF-Q0Ab5-4" value="Création des threads" style="whiteSpace=wrap;html=1;rounded=0;" vertex="1" parent="1">
          <mxGeometry x="335" y="170" width="120" height="60" as="geometry" />
        </mxCell>
        <mxCell id="evuOkTjY95VLcF-Q0Ab5-9" style="edgeStyle=orthogonalEdgeStyle;rounded=0;orthogonalLoop=1;jettySize=auto;html=1;" edge="1" parent="1" source="evuOkTjY95VLcF-Q0Ab5-6" target="evuOkTjY95VLcF-Q0Ab5-7">
          <mxGeometry relative="1" as="geometry" />
        </mxCell>
        <mxCell id="evuOkTjY95VLcF-Q0Ab5-6" value="&lt;div&gt;Thread routine&lt;/div&gt;" style="rounded=0;whiteSpace=wrap;html=1;" vertex="1" parent="1">
          <mxGeometry x="335" y="290" width="120" height="60" as="geometry" />
        </mxCell>
        <mxCell id="evuOkTjY95VLcF-Q0Ab5-12" value="" style="edgeStyle=orthogonalEdgeStyle;rounded=0;orthogonalLoop=1;jettySize=auto;html=1;" edge="1" parent="1" source="evuOkTjY95VLcF-Q0Ab5-7" target="evuOkTjY95VLcF-Q0Ab5-11">
          <mxGeometry relative="1" as="geometry" />
        </mxCell>
        <mxCell id="evuOkTjY95VLcF-Q0Ab5-16" value="Vrai" style="edgeLabel;html=1;align=center;verticalAlign=middle;resizable=0;points=[];" vertex="1" connectable="0" parent="evuOkTjY95VLcF-Q0Ab5-12">
          <mxGeometry x="-0.1231" y="2" relative="1" as="geometry">
            <mxPoint as="offset" />
          </mxGeometry>
        </mxCell>
        <mxCell id="evuOkTjY95VLcF-Q0Ab5-15" value="" style="edgeStyle=orthogonalEdgeStyle;rounded=0;orthogonalLoop=1;jettySize=auto;html=1;" edge="1" parent="1" source="evuOkTjY95VLcF-Q0Ab5-7" target="evuOkTjY95VLcF-Q0Ab5-14">
          <mxGeometry relative="1" as="geometry" />
        </mxCell>
        <mxCell id="evuOkTjY95VLcF-Q0Ab5-17" value="Faux" style="edgeLabel;html=1;align=center;verticalAlign=middle;resizable=0;points=[];" vertex="1" connectable="0" parent="evuOkTjY95VLcF-Q0Ab5-15">
          <mxGeometry x="-0.2769" y="-2" relative="1" as="geometry">
            <mxPoint as="offset" />
          </mxGeometry>
        </mxCell>
        <mxCell id="evuOkTjY95VLcF-Q0Ab5-7" value="Taille restante à explorer &amp;lt; seuil" style="rhombus;whiteSpace=wrap;html=1;" vertex="1" parent="1">
          <mxGeometry x="300" y="390" width="190" height="80" as="geometry" />
        </mxCell>
        <mxCell id="evuOkTjY95VLcF-Q0Ab5-55" style="edgeStyle=orthogonalEdgeStyle;rounded=0;orthogonalLoop=1;jettySize=auto;html=1;" edge="1" parent="1" source="evuOkTjY95VLcF-Q0Ab5-11" target="evuOkTjY95VLcF-Q0Ab5-28">
          <mxGeometry relative="1" as="geometry" />
        </mxCell>
        <mxCell id="evuOkTjY95VLcF-Q0Ab5-11" value="Branch and bound" style="whiteSpace=wrap;html=1;" vertex="1" parent="1">
          <mxGeometry x="45" y="400" width="120" height="60" as="geometry" />
        </mxCell>
        <mxCell id="evuOkTjY95VLcF-Q0Ab5-14" value="Exploration séquentielle" style="whiteSpace=wrap;html=1;" vertex="1" parent="1">
          <mxGeometry x="620" y="400" width="120" height="60" as="geometry" />
        </mxCell>
        <mxCell id="evuOkTjY95VLcF-Q0Ab5-31" value="" style="edgeStyle=orthogonalEdgeStyle;rounded=0;orthogonalLoop=1;jettySize=auto;html=1;" edge="1" parent="1" source="evuOkTjY95VLcF-Q0Ab5-28" target="evuOkTjY95VLcF-Q0Ab5-30">
          <mxGeometry relative="1" as="geometry" />
        </mxCell>
        <mxCell id="evuOkTjY95VLcF-Q0Ab5-32" value="Faux" style="edgeLabel;html=1;align=center;verticalAlign=middle;resizable=0;points=[];" vertex="1" connectable="0" parent="evuOkTjY95VLcF-Q0Ab5-31">
          <mxGeometry x="-0.0783" y="2" relative="1" as="geometry">
            <mxPoint as="offset" />
          </mxGeometry>
        </mxCell>
        <mxCell id="evuOkTjY95VLcF-Q0Ab5-35" value="" style="edgeStyle=orthogonalEdgeStyle;rounded=0;orthogonalLoop=1;jettySize=auto;html=1;" edge="1" parent="1" source="evuOkTjY95VLcF-Q0Ab5-28" target="evuOkTjY95VLcF-Q0Ab5-34">
          <mxGeometry relative="1" as="geometry" />
        </mxCell>
        <mxCell id="evuOkTjY95VLcF-Q0Ab5-36" value="Vrai" style="edgeLabel;html=1;align=center;verticalAlign=middle;resizable=0;points=[];" vertex="1" connectable="0" parent="evuOkTjY95VLcF-Q0Ab5-35">
          <mxGeometry x="-0.0087" y="-1" relative="1" as="geometry">
            <mxPoint as="offset" />
          </mxGeometry>
        </mxCell>
        <mxCell id="evuOkTjY95VLcF-Q0Ab5-28" value="Plus court que chemin global" style="rhombus;whiteSpace=wrap;html=1;" vertex="1" parent="1">
          <mxGeometry x="10" y="540" width="190" height="80" as="geometry" />
        </mxCell>
        <mxCell id="evuOkTjY95VLcF-Q0Ab5-43" style="edgeStyle=orthogonalEdgeStyle;rounded=0;orthogonalLoop=1;jettySize=auto;html=1;" edge="1" parent="1" source="evuOkTjY95VLcF-Q0Ab5-30" target="evuOkTjY95VLcF-Q0Ab5-41">
          <mxGeometry relative="1" as="geometry">
            <Array as="points">
              <mxPoint x="375" y="680" />
              <mxPoint x="105" y="680" />
            </Array>
          </mxGeometry>
        </mxCell>
        <mxCell id="evuOkTjY95VLcF-Q0Ab5-30" value="Bound" style="whiteSpace=wrap;html=1;" vertex="1" parent="1">
          <mxGeometry x="315" y="550" width="120" height="60" as="geometry" />
        </mxCell>
        <mxCell id="evuOkTjY95VLcF-Q0Ab5-42" style="edgeStyle=orthogonalEdgeStyle;rounded=0;orthogonalLoop=1;jettySize=auto;html=1;" edge="1" parent="1" source="evuOkTjY95VLcF-Q0Ab5-34" target="evuOkTjY95VLcF-Q0Ab5-41">
          <mxGeometry relative="1" as="geometry">
            <Array as="points">
              <mxPoint x="-165" y="680" />
              <mxPoint x="105" y="680" />
            </Array>
          </mxGeometry>
        </mxCell>
        <mxCell id="evuOkTjY95VLcF-Q0Ab5-34" value="Ajout des noeux" style="whiteSpace=wrap;html=1;" vertex="1" parent="1">
          <mxGeometry x="-225" y="550" width="120" height="60" as="geometry" />
        </mxCell>
        <mxCell id="evuOkTjY95VLcF-Q0Ab5-48" value="" style="edgeStyle=orthogonalEdgeStyle;rounded=0;orthogonalLoop=1;jettySize=auto;html=1;" edge="1" parent="1" source="evuOkTjY95VLcF-Q0Ab5-41" target="evuOkTjY95VLcF-Q0Ab5-47">
          <mxGeometry relative="1" as="geometry" />
        </mxCell>
        <mxCell id="evuOkTjY95VLcF-Q0Ab5-57" value="Faux" style="edgeLabel;html=1;align=center;verticalAlign=middle;resizable=0;points=[];" vertex="1" connectable="0" parent="evuOkTjY95VLcF-Q0Ab5-48">
          <mxGeometry x="-0.2884" y="-5" relative="1" as="geometry">
            <mxPoint as="offset" />
          </mxGeometry>
        </mxCell>
        <mxCell id="evuOkTjY95VLcF-Q0Ab5-56" style="edgeStyle=orthogonalEdgeStyle;rounded=0;orthogonalLoop=1;jettySize=auto;html=1;" edge="1" parent="1" source="evuOkTjY95VLcF-Q0Ab5-41" target="evuOkTjY95VLcF-Q0Ab5-7">
          <mxGeometry relative="1" as="geometry">
            <Array as="points">
              <mxPoint x="-390" y="780" />
              <mxPoint x="-390" y="370" />
              <mxPoint x="395" y="370" />
            </Array>
          </mxGeometry>
        </mxCell>
        <mxCell id="evuOkTjY95VLcF-Q0Ab5-58" value="Vrai" style="edgeLabel;html=1;align=center;verticalAlign=middle;resizable=0;points=[];" vertex="1" connectable="0" parent="evuOkTjY95VLcF-Q0Ab5-56">
          <mxGeometry x="-0.8105" y="3" relative="1" as="geometry">
            <mxPoint as="offset" />
          </mxGeometry>
        </mxCell>
        <mxCell id="evuOkTjY95VLcF-Q0Ab5-41" value="Tous les chemins ont été parcourus" style="rhombus;whiteSpace=wrap;html=1;" vertex="1" parent="1">
          <mxGeometry x="10" y="740" width="190" height="80" as="geometry" />
        </mxCell>
        <mxCell id="evuOkTjY95VLcF-Q0Ab5-51" value="" style="edgeStyle=orthogonalEdgeStyle;rounded=0;orthogonalLoop=1;jettySize=auto;html=1;" edge="1" parent="1" source="evuOkTjY95VLcF-Q0Ab5-47" target="evuOkTjY95VLcF-Q0Ab5-50">
          <mxGeometry relative="1" as="geometry" />
        </mxCell>
        <mxCell id="evuOkTjY95VLcF-Q0Ab5-52" value="Faux" style="edgeLabel;html=1;align=center;verticalAlign=middle;resizable=0;points=[];" vertex="1" connectable="0" parent="evuOkTjY95VLcF-Q0Ab5-51">
          <mxGeometry x="-0.3391" y="-1" relative="1" as="geometry">
            <mxPoint x="-1" as="offset" />
          </mxGeometry>
        </mxCell>
        <mxCell id="evuOkTjY95VLcF-Q0Ab5-54" value="" style="edgeStyle=orthogonalEdgeStyle;rounded=0;orthogonalLoop=1;jettySize=auto;html=1;" edge="1" parent="1" source="evuOkTjY95VLcF-Q0Ab5-47" target="evuOkTjY95VLcF-Q0Ab5-53">
          <mxGeometry relative="1" as="geometry" />
        </mxCell>
        <mxCell id="evuOkTjY95VLcF-Q0Ab5-47" value="local shortest &amp;lt; global shortest" style="rhombus;whiteSpace=wrap;html=1;" vertex="1" parent="1">
          <mxGeometry x="315" y="880" width="190" height="80" as="geometry" />
        </mxCell>
        <mxCell id="evuOkTjY95VLcF-Q0Ab5-50" value="Fin du thread" style="whiteSpace=wrap;html=1;" vertex="1" parent="1">
          <mxGeometry x="620" y="890" width="120" height="60" as="geometry" />
        </mxCell>
        <mxCell id="evuOkTjY95VLcF-Q0Ab5-53" value="Chemin le plus court devient la variable global" style="whiteSpace=wrap;html=1;" vertex="1" parent="1">
          <mxGeometry x="80" y="890" width="120" height="60" as="geometry" />
        </mxCell>
      </root>
    </mxGraphModel>
  </diagram>
</mxfile>
